<svg xmlns="http://www.w3.org/2000/svg" xmlns:xlink="http://www.w3.org/1999/xlink" version="1.1" class="marks" width="360" height="372" viewBox="0 0 360 372"><rect width="360" height="372" fill="white"/><g fill="none" stroke-miterlimit="10" transform="translate(54,11)"><g class="mark-group role-frame root" role="graphics-object" aria-roledescription="group mark container"><g transform="translate(0,0)"><path class="background" aria-hidden="true" d="M0.5,0.5h300v320h-300Z" stroke="#ddd"/><g><g class="mark-group role-axis" aria-hidden="true"><g transform="translate(0.5,320.5)"><path class="background" aria-hidden="true" d="M0,0h0v0h0Z" pointer-events="none"/><g><g class="mark-rule role-axis-grid" pointer-events="none"><line transform="translate(0,-320)" x2="0" y2="320" stroke="#ddd" stroke-width="1" opacity="1"/><line transform="translate(33,-320)" x2="0" y2="320" stroke="#ddd" stroke-width="1" opacity="1"/><line transform="translate(67,-320)" x2="0" y2="320" stroke="#ddd" stroke-width="1" opacity="1"/><line transform="translate(100,-320)" x2="0" y2="320" stroke="#ddd" stroke-width="1" opacity="1"/><line transform="translate(133,-320)" x2="0" y2="320" stroke="#ddd" stroke-width="1" opacity="1"/><line transform="translate(167,-320)" x2="0" y2="320" stroke="#ddd" stroke-width="1" opacity="1"/><line transform="translate(200,-320)" x2="0" y2="320" stroke="#ddd" stroke-width="1" opacity="1"/><line transform="translate(233,-320)" x2="0" y2="320" stroke="#ddd" stroke-width="1" opacity="1"/><line transform="translate(267,-320)" x2="0" y2="320" stroke="#ddd" stroke-width="1" opacity="1"/><line transform="translate(300,-320)" x2="0" y2="320" stroke="#ddd" stroke-width="1" opacity="1"/></g></g><path class="foreground" aria-hidden="true" d="" pointer-events="none" display="none"/></g></g><g class="mark-group role-axis" aria-hidden="true"><g transform="translate(0.5,0.5)"><path class="background" aria-hidden="true" d="M0,0h0v0h0Z" pointer-events="none"/><g><g class="mark-rule role-axis-grid" pointer-events="none"><line transform="translate(0,320)" x2="300" y2="0" stroke="#ddd" stroke-width="1" opacity="1"/><line transform="translate(0,288)" x2="300" y2="0" stroke="#ddd" stroke-width="1" opacity="1"/><line transform="translate(0,256)" x2="300" y2="0" stroke="#ddd" stroke-width="1" opacity="1"/><line transform="translate(0,224)" x2="300" y2="0" stroke="#ddd" stroke-width="1" opacity="1"/><line transform="translate(0,192)" x2="300" y2="0" stroke="#ddd" stroke-width="1" opacity="1"/><line transform="translate(0,160)" x2="300" y2="0" stroke="#ddd" stroke-width="1" opacity="1"/><line transform="translate(0,128)" x2="300" y2="0" stroke="#ddd" stroke-width="1" opacity="1"/><line transform="translate(0,96)" x2="300" y2="0" stroke="#ddd" stroke-width="1" opacity="1"/><line transform="translate(0,64)" x2="300" y2="0" stroke="#ddd" stroke-width="1" opacity="1"/><line transform="translate(0,32)" x2="300" y2="0" stroke="#ddd" stroke-width="1" opacity="1"/><line transform="translate(0,0)" x2="300" y2="0" stroke="#ddd" stroke-width="1" opacity="1"/></g></g><path class="foreground" aria-hidden="true" d="" pointer-events="none" display="none"/></g></g><g class="mark-group role-axis" role="graphics-symbol" aria-roledescription="axis" aria-label="X-axis titled 'Dropout' for a linear scale with values from 0.0 to 0.9"><g transform="translate(0.5,320.5)"><path class="background" aria-hidden="true" d="M0,0h0v0h0Z" pointer-events="none"/><g><g class="mark-rule role-axis-tick" pointer-events="none"><line transform="translate(0,0)" x2="0" y2="5" stroke="#888" stroke-width="1" opacity="1"/><line transform="translate(33,0)" x2="0" y2="5" stroke="#888" stroke-width="1" opacity="1"/><line transform="translate(67,0)" x2="0" y2="5" stroke="#888" stroke-width="1" opacity="1"/><line transform="translate(100,0)" x2="0" y2="5" stroke="#888" stroke-width="1" opacity="1"/><line transform="translate(133,0)" x2="0" y2="5" stroke="#888" stroke-width="1" opacity="1"/><line transform="translate(167,0)" x2="0" y2="5" stroke="#888" stroke-width="1" opacity="1"/><line transform="translate(200,0)" x2="0" y2="5" stroke="#888" stroke-width="1" opacity="1"/><line transform="translate(233,0)" x2="0" y2="5" stroke="#888" stroke-width="1" opacity="1"/><line transform="translate(267,0)" x2="0" y2="5" stroke="#888" stroke-width="1" opacity="1"/><line transform="translate(300,0)" x2="0" y2="5" stroke="#888" stroke-width="1" opacity="1"/></g><g class="mark-text role-axis-label" pointer-events="none"><text text-anchor="start" transform="translate(0,16)" font-family="sans-serif" font-size="12px" font-weight="bold" fill="#000" opacity="1">0.0</text><text text-anchor="middle" transform="translate(33.333333333333336,16)" font-family="sans-serif" font-size="12px" font-weight="bold" fill="#000" opacity="1">0.1</text><text text-anchor="middle" transform="translate(66.66666666666667,16)" font-family="sans-serif" font-size="12px" font-weight="bold" fill="#000" opacity="1">0.2</text><text text-anchor="middle" transform="translate(100,16)" font-family="sans-serif" font-size="12px" font-weight="bold" fill="#000" opacity="1">0.3</text><text text-anchor="middle" transform="translate(133.33333333333334,16)" font-family="sans-serif" font-size="12px" font-weight="bold" fill="#000" opacity="1">0.4</text><text text-anchor="middle" transform="translate(166.66666666666669,16)" font-family="sans-serif" font-size="12px" font-weight="bold" fill="#000" opacity="1">0.5</text><text text-anchor="middle" transform="translate(200,16)" font-family="sans-serif" font-size="12px" font-weight="bold" fill="#000" opacity="1">0.6</text><text text-anchor="middle" transform="translate(233.33333333333331,16)" font-family="sans-serif" font-size="12px" font-weight="bold" fill="#000" opacity="1">0.7</text><text text-anchor="middle" transform="translate(266.6666666666667,16)" font-family="sans-serif" font-size="12px" font-weight="bold" fill="#000" opacity="1">0.8</text><text text-anchor="end" transform="translate(300,16)" font-family="sans-serif" font-size="12px" font-weight="bold" fill="#000" opacity="1">0.9</text></g><g class="mark-rule role-axis-domain" pointer-events="none"><line transform="translate(0,0)" x2="300" y2="0" stroke="#888" stroke-width="1" opacity="1"/></g><g class="mark-text role-axis-title" pointer-events="none"><text text-anchor="middle" transform="translate(150,33)" font-family="sans-serif" font-size="14px" font-weight="bold" fill="#000" opacity="1">Dropout</text></g></g><path class="foreground" aria-hidden="true" d="" pointer-events="none" display="none"/></g></g><g class="mark-group role-axis" role="graphics-symbol" aria-roledescription="axis" aria-label="Y-axis titled 'OOD PRECISION' for a linear scale with values from 0.5 to 1.0"><g transform="translate(0.5,0.5)"><path class="background" aria-hidden="true" d="M0,0h0v0h0Z" pointer-events="none"/><g><g class="mark-rule role-axis-tick" pointer-events="none"><line transform="translate(0,320)" x2="-5" y2="0" stroke="#888" stroke-width="1" opacity="1"/><line transform="translate(0,288)" x2="-5" y2="0" stroke="#888" stroke-width="1" opacity="1"/><line transform="translate(0,256)" x2="-5" y2="0" stroke="#888" stroke-width="1" opacity="1"/><line transform="translate(0,224)" x2="-5" y2="0" stroke="#888" stroke-width="1" opacity="1"/><line transform="translate(0,192)" x2="-5" y2="0" stroke="#888" stroke-width="1" opacity="1"/><line transform="translate(0,160)" x2="-5" y2="0" stroke="#888" stroke-width="1" opacity="1"/><line transform="translate(0,128)" x2="-5" y2="0" stroke="#888" stroke-width="1" opacity="1"/><line transform="translate(0,96)" x2="-5" y2="0" stroke="#888" stroke-width="1" opacity="1"/><line transform="translate(0,64)" x2="-5" y2="0" stroke="#888" stroke-width="1" opacity="1"/><line transform="translate(0,32)" x2="-5" y2="0" stroke="#888" stroke-width="1" opacity="1"/><line transform="translate(0,0)" x2="-5" y2="0" stroke="#888" stroke-width="1" opacity="1"/></g><g class="mark-text role-axis-label" pointer-events="none"><text text-anchor="end" transform="translate(-7,324)" font-family="sans-serif" font-size="12px" font-weight="bold" fill="#000" opacity="1">0.50</text><text text-anchor="end" transform="translate(-7,292)" font-family="sans-serif" font-size="12px" font-weight="bold" fill="#000" opacity="1">0.55</text><text text-anchor="end" transform="translate(-7,260)" font-family="sans-serif" font-size="12px" font-weight="bold" fill="#000" opacity="1">0.60</text><text text-anchor="end" transform="translate(-7,228)" font-family="sans-serif" font-size="12px" font-weight="bold" fill="#000" opacity="1">0.65</text><text text-anchor="end" transform="translate(-7,196.00000000000003)" font-family="sans-serif" font-size="12px" font-weight="bold" fill="#000" opacity="1">0.70</text><text text-anchor="end" transform="translate(-7,164)" font-family="sans-serif" font-size="12px" font-weight="bold" fill="#000" opacity="1">0.75</text><text text-anchor="end" transform="translate(-7,131.99999999999997)" font-family="sans-serif" font-size="12px" font-weight="bold" fill="#000" opacity="1">0.80</text><text text-anchor="end" transform="translate(-7,100.00000000000001)" font-family="sans-serif" font-size="12px" font-weight="bold" fill="#000" opacity="1">0.85</text><text text-anchor="end" transform="translate(-7,67.99999999999999)" font-family="sans-serif" font-size="12px" font-weight="bold" fill="#000" opacity="1">0.90</text><text text-anchor="end" transform="translate(-7,36.00000000000003)" font-family="sans-serif" font-size="12px" font-weight="bold" fill="#000" opacity="1">0.95</text><text text-anchor="end" transform="translate(-7,4)" font-family="sans-serif" font-size="12px" font-weight="bold" fill="#000" opacity="1">1.00</text></g><g class="mark-rule role-axis-domain" pointer-events="none"><line transform="translate(0,320)" x2="0" y2="-320" stroke="#888" stroke-width="1" opacity="1"/></g><g class="mark-text role-axis-title" pointer-events="none"><text text-anchor="middle" transform="translate(-34.35546875,160) rotate(-90) translate(0,-3)" font-family="sans-serif" font-size="14px" font-weight="bold" fill="#000" opacity="1">OOD PRECISION</text></g></g><path class="foreground" aria-hidden="true" d="" pointer-events="none" display="none"/></g></g><g class="mark-symbol role-mark marks" clip-path="url(#clip50)" role="graphics-object" aria-roledescription="symbol mark container"><path aria-label="Dropout: 0.25; OOD PRECISION: 0.872" role="graphics-symbol" aria-roledescription="point" transform="translate(83.33333333333334,81.92)" d="M4.472,0A4.472,4.472,0,1,1,-4.472,0A4.472,4.472,0,1,1,4.472,0" fill="#4c78a8" stroke-width="2" opacity="0.7"/><path aria-label="Dropout: 0; OOD PRECISION: 0.811" role="graphics-symbol" aria-roledescription="point" transform="translate(0,120.95999999999997)" d="M4.472,0A4.472,4.472,0,1,1,-4.472,0A4.472,4.472,0,1,1,4.472,0" fill="#4c78a8" stroke-width="2" opacity="0.7"/><path aria-label="Dropout: 0; OOD PRECISION: 0.793" role="graphics-symbol" aria-roledescription="point" transform="translate(0,132.47999999999996)" d="M4.472,0A4.472,4.472,0,1,1,-4.472,0A4.472,4.472,0,1,1,4.472,0" fill="#4c78a8" stroke-width="2" opacity="0.7"/><path aria-label="Dropout: 0.25; OOD PRECISION: 0.911" role="graphics-symbol" aria-roledescription="point" transform="translate(83.33333333333334,56.95999999999998)" d="M4.472,0A4.472,4.472,0,1,1,-4.472,0A4.472,4.472,0,1,1,4.472,0" fill="#4c78a8" stroke-width="2" opacity="0.7"/><path aria-label="Dropout: 0.25; OOD PRECISION: 0.904" role="graphics-symbol" aria-roledescription="point" transform="translate(83.33333333333334,61.43999999999998)" d="M4.472,0A4.472,4.472,0,1,1,-4.472,0A4.472,4.472,0,1,1,4.472,0" fill="#4c78a8" stroke-width="2" opacity="0.7"/><path aria-label="Dropout: 0.25; OOD PRECISION: 0.908" role="graphics-symbol" aria-roledescription="point" transform="translate(83.33333333333334,58.87999999999998)" d="M4.472,0A4.472,4.472,0,1,1,-4.472,0A4.472,4.472,0,1,1,4.472,0" fill="#4c78a8" stroke-width="2" opacity="0.7"/><path aria-label="Dropout: 0.5; OOD PRECISION: 0.917" role="graphics-symbol" aria-roledescription="point" transform="translate(166.66666666666669,53.119999999999976)" d="M4.472,0A4.472,4.472,0,1,1,-4.472,0A4.472,4.472,0,1,1,4.472,0" fill="#4c78a8" stroke-width="2" opacity="0.7"/><path aria-label="Dropout: 0.25; OOD PRECISION: 0.832" role="graphics-symbol" aria-roledescription="point" transform="translate(83.33333333333334,107.52000000000002)" d="M4.472,0A4.472,4.472,0,1,1,-4.472,0A4.472,4.472,0,1,1,4.472,0" fill="#4c78a8" stroke-width="2" opacity="0.7"/><path aria-label="Dropout: 0.25; OOD PRECISION: 0.938" role="graphics-symbol" aria-roledescription="point" transform="translate(83.33333333333334,39.680000000000035)" d="M4.472,0A4.472,4.472,0,1,1,-4.472,0A4.472,4.472,0,1,1,4.472,0" fill="#4c78a8" stroke-width="2" opacity="0.7"/><path aria-label="Dropout: 0; OOD PRECISION: 0.845" role="graphics-symbol" aria-roledescription="point" transform="translate(0,99.20000000000002)" d="M4.472,0A4.472,4.472,0,1,1,-4.472,0A4.472,4.472,0,1,1,4.472,0" fill="#4c78a8" stroke-width="2" opacity="0.7"/><path aria-label="Dropout: 0; OOD PRECISION: 0.737" role="graphics-symbol" aria-roledescription="point" transform="translate(0,168.32)" d="M4.472,0A4.472,4.472,0,1,1,-4.472,0A4.472,4.472,0,1,1,4.472,0" fill="#4c78a8" stroke-width="2" opacity="0.7"/><path aria-label="Dropout: 0; OOD PRECISION: 0.931" role="graphics-symbol" aria-roledescription="point" transform="translate(0,44.15999999999997)" d="M4.472,0A4.472,4.472,0,1,1,-4.472,0A4.472,4.472,0,1,1,4.472,0" fill="#4c78a8" stroke-width="2" opacity="0.7"/><path aria-label="Dropout: 0.5; OOD PRECISION: 0.921" role="graphics-symbol" aria-roledescription="point" transform="translate(166.66666666666669,50.559999999999974)" d="M4.472,0A4.472,4.472,0,1,1,-4.472,0A4.472,4.472,0,1,1,4.472,0" fill="#4c78a8" stroke-width="2" opacity="0.7"/><path aria-label="Dropout: 0.25; OOD PRECISION: 0.78" role="graphics-symbol" aria-roledescription="point" transform="translate(83.33333333333334,140.79999999999998)" d="M4.472,0A4.472,4.472,0,1,1,-4.472,0A4.472,4.472,0,1,1,4.472,0" fill="#4c78a8" stroke-width="2" opacity="0.7"/><path aria-label="Dropout: 0.5; OOD PRECISION: 0.952" role="graphics-symbol" aria-roledescription="point" transform="translate(166.66666666666669,30.720000000000027)" d="M4.472,0A4.472,4.472,0,1,1,-4.472,0A4.472,4.472,0,1,1,4.472,0" fill="#4c78a8" stroke-width="2" opacity="0.7"/><path aria-label="Dropout: 0.5; OOD PRECISION: 0.941" role="graphics-symbol" aria-roledescription="point" transform="translate(166.66666666666669,37.76000000000003)" d="M4.472,0A4.472,4.472,0,1,1,-4.472,0A4.472,4.472,0,1,1,4.472,0" fill="#4c78a8" stroke-width="2" opacity="0.7"/><path aria-label="Dropout: 0.25; OOD PRECISION: 0.928" role="graphics-symbol" aria-roledescription="point" transform="translate(83.33333333333334,46.07999999999997)" d="M4.472,0A4.472,4.472,0,1,1,-4.472,0A4.472,4.472,0,1,1,4.472,0" fill="#4c78a8" stroke-width="2" opacity="0.7"/><path aria-label="Dropout: 0.5; OOD PRECISION: 0.929" role="graphics-symbol" aria-roledescription="point" transform="translate(166.66666666666669,45.43999999999997)" d="M4.472,0A4.472,4.472,0,1,1,-4.472,0A4.472,4.472,0,1,1,4.472,0" fill="#4c78a8" stroke-width="2" opacity="0.7"/><path aria-label="Dropout: 0.25; OOD PRECISION: 0.964" role="graphics-symbol" aria-roledescription="point" transform="translate(83.33333333333334,23.04000000000002)" d="M4.472,0A4.472,4.472,0,1,1,-4.472,0A4.472,4.472,0,1,1,4.472,0" fill="#4c78a8" stroke-width="2" opacity="0.7"/><path aria-label="Dropout: 0.5; OOD PRECISION: 0.956" role="graphics-symbol" aria-roledescription="point" transform="translate(166.66666666666669,28.160000000000025)" d="M4.472,0A4.472,4.472,0,1,1,-4.472,0A4.472,4.472,0,1,1,4.472,0" fill="#4c78a8" stroke-width="2" opacity="0.7"/><path aria-label="Dropout: 0; OOD PRECISION: 0.95" role="graphics-symbol" aria-roledescription="point" transform="translate(0,32.00000000000003)" d="M4.472,0A4.472,4.472,0,1,1,-4.472,0A4.472,4.472,0,1,1,4.472,0" fill="#4c78a8" stroke-width="2" opacity="0.7"/><path aria-label="Dropout: 0.5; OOD PRECISION: 0.982" role="graphics-symbol" aria-roledescription="point" transform="translate(166.66666666666669,11.52000000000001)" d="M4.472,0A4.472,4.472,0,1,1,-4.472,0A4.472,4.472,0,1,1,4.472,0" fill="#4c78a8" stroke-width="2" opacity="0.7"/><path aria-label="Dropout: 0.5; OOD PRECISION: 0.955" role="graphics-symbol" aria-roledescription="point" transform="translate(166.66666666666669,28.800000000000026)" d="M4.472,0A4.472,4.472,0,1,1,-4.472,0A4.472,4.472,0,1,1,4.472,0" fill="#4c78a8" stroke-width="2" opacity="0.7"/><path aria-label="Dropout: 0; OOD PRECISION: 0.746" role="graphics-symbol" aria-roledescription="point" transform="translate(0,162.56)" d="M4.472,0A4.472,4.472,0,1,1,-4.472,0A4.472,4.472,0,1,1,4.472,0" fill="#4c78a8" stroke-width="2" opacity="0.7"/><path aria-label="Dropout: 0.25; OOD PRECISION: 0.922" role="graphics-symbol" aria-roledescription="point" transform="translate(83.33333333333334,49.91999999999997)" d="M4.472,0A4.472,4.472,0,1,1,-4.472,0A4.472,4.472,0,1,1,4.472,0" fill="#4c78a8" stroke-width="2" opacity="0.7"/><path aria-label="Dropout: 0; OOD PRECISION: 0.937" role="graphics-symbol" aria-roledescription="point" transform="translate(0,40.319999999999965)" d="M4.472,0A4.472,4.472,0,1,1,-4.472,0A4.472,4.472,0,1,1,4.472,0" fill="#4c78a8" stroke-width="2" opacity="0.7"/><path aria-label="Dropout: 0; OOD PRECISION: 0.806" role="graphics-symbol" aria-roledescription="point" transform="translate(0,124.15999999999997)" d="M4.472,0A4.472,4.472,0,1,1,-4.472,0A4.472,4.472,0,1,1,4.472,0" fill="#4c78a8" stroke-width="2" opacity="0.7"/><path aria-label="Dropout: 0.5; OOD PRECISION: 0.968" role="graphics-symbol" aria-roledescription="point" transform="translate(166.66666666666669,20.480000000000018)" d="M4.472,0A4.472,4.472,0,1,1,-4.472,0A4.472,4.472,0,1,1,4.472,0" fill="#4c78a8" stroke-width="2" opacity="0.7"/><path aria-label="Dropout: 0.5; OOD PRECISION: 0.972" role="graphics-symbol" aria-roledescription="point" transform="translate(166.66666666666669,17.920000000000016)" d="M4.472,0A4.472,4.472,0,1,1,-4.472,0A4.472,4.472,0,1,1,4.472,0" fill="#4c78a8" stroke-width="2" opacity="0.7"/><path aria-label="Dropout: 0.5; OOD PRECISION: 0.961" role="graphics-symbol" aria-roledescription="point" transform="translate(166.66666666666669,24.960000000000022)" d="M4.472,0A4.472,4.472,0,1,1,-4.472,0A4.472,4.472,0,1,1,4.472,0" fill="#4c78a8" stroke-width="2" opacity="0.7"/><path aria-label="Dropout: 0; OOD PRECISION: 0.844" role="graphics-symbol" aria-roledescription="point" transform="translate(0,99.84000000000002)" d="M4.472,0A4.472,4.472,0,1,1,-4.472,0A4.472,4.472,0,1,1,4.472,0" fill="#4c78a8" stroke-width="2" opacity="0.7"/><path aria-label="Dropout: 0.5; OOD PRECISION: 0.982" role="graphics-symbol" aria-roledescription="point" transform="translate(166.66666666666669,11.52000000000001)" d="M4.472,0A4.472,4.472,0,1,1,-4.472,0A4.472,4.472,0,1,1,4.472,0" fill="#4c78a8" stroke-width="2" opacity="0.7"/><path aria-label="Dropout: 0; OOD PRECISION: 0.963" role="graphics-symbol" aria-roledescription="point" transform="translate(0,23.68000000000002)" d="M4.472,0A4.472,4.472,0,1,1,-4.472,0A4.472,4.472,0,1,1,4.472,0" fill="#4c78a8" stroke-width="2" opacity="0.7"/><path aria-label="Dropout: 0.25; OOD PRECISION: 0.736" role="graphics-symbol" aria-roledescription="point" transform="translate(83.33333333333334,168.96)" d="M4.472,0A4.472,4.472,0,1,1,-4.472,0A4.472,4.472,0,1,1,4.472,0" fill="#4c78a8" stroke-width="2" opacity="0.7"/><path aria-label="Dropout: 0.75; OOD PRECISION: 0.996" role="graphics-symbol" aria-roledescription="point" transform="translate(249.99999999999997,2.5600000000000023)" d="M4.472,0A4.472,4.472,0,1,1,-4.472,0A4.472,4.472,0,1,1,4.472,0" fill="#4c78a8" stroke-width="2" opacity="0.7"/><path aria-label="Dropout: 0.75; OOD PRECISION: 0.998" role="graphics-symbol" aria-roledescription="point" transform="translate(249.99999999999997,1.2800000000000011)" d="M4.472,0A4.472,4.472,0,1,1,-4.472,0A4.472,4.472,0,1,1,4.472,0" fill="#4c78a8" stroke-width="2" opacity="0.7"/><path aria-label="Dropout: 0.25; OOD PRECISION: 0.898" role="graphics-symbol" aria-roledescription="point" transform="translate(83.33333333333334,65.27999999999999)" d="M4.472,0A4.472,4.472,0,1,1,-4.472,0A4.472,4.472,0,1,1,4.472,0" fill="#4c78a8" stroke-width="2" opacity="0.7"/><path aria-label="Dropout: 0.75; OOD PRECISION: 0.997" role="graphics-symbol" aria-roledescription="point" transform="translate(249.99999999999997,1.9200000000000017)" d="M4.472,0A4.472,4.472,0,1,1,-4.472,0A4.472,4.472,0,1,1,4.472,0" fill="#4c78a8" stroke-width="2" opacity="0.7"/><path aria-label="Dropout: 0.75; OOD PRECISION: 0.997" role="graphics-symbol" aria-roledescription="point" transform="translate(249.99999999999997,1.9200000000000017)" d="M4.472,0A4.472,4.472,0,1,1,-4.472,0A4.472,4.472,0,1,1,4.472,0" fill="#4c78a8" stroke-width="2" opacity="0.7"/><path aria-label="Dropout: 0.75; OOD PRECISION: 1" role="graphics-symbol" aria-roledescription="point" transform="translate(249.99999999999997,0)" d="M4.472,0A4.472,4.472,0,1,1,-4.472,0A4.472,4.472,0,1,1,4.472,0" fill="#4c78a8" stroke-width="2" opacity="0.7"/><path aria-label="Dropout: 0.75; OOD PRECISION: 0.994" role="graphics-symbol" aria-roledescription="point" transform="translate(249.99999999999997,3.8400000000000034)" d="M4.472,0A4.472,4.472,0,1,1,-4.472,0A4.472,4.472,0,1,1,4.472,0" fill="#4c78a8" stroke-width="2" opacity="0.7"/><path aria-label="Dropout: 0.75; OOD PRECISION: 0.999" role="graphics-symbol" aria-roledescription="point" transform="translate(249.99999999999997,0.6400000000000006)" d="M4.472,0A4.472,4.472,0,1,1,-4.472,0A4.472,4.472,0,1,1,4.472,0" fill="#4c78a8" stroke-width="2" opacity="0.7"/><path aria-label="Dropout: 0.75; OOD PRECISION: 0.999" role="graphics-symbol" aria-roledescription="point" transform="translate(249.99999999999997,0.6400000000000006)" d="M4.472,0A4.472,4.472,0,1,1,-4.472,0A4.472,4.472,0,1,1,4.472,0" fill="#4c78a8" stroke-width="2" opacity="0.7"/><path aria-label="Dropout: 0.75; OOD PRECISION: 0.998" role="graphics-symbol" aria-roledescription="point" transform="translate(249.99999999999997,1.2800000000000011)" d="M4.472,0A4.472,4.472,0,1,1,-4.472,0A4.472,4.472,0,1,1,4.472,0" fill="#4c78a8" stroke-width="2" opacity="0.7"/><path aria-label="Dropout: 0.75; OOD PRECISION: 1" role="graphics-symbol" aria-roledescription="point" transform="translate(249.99999999999997,0)" d="M4.472,0A4.472,4.472,0,1,1,-4.472,0A4.472,4.472,0,1,1,4.472,0" fill="#4c78a8" stroke-width="2" opacity="0.7"/><path aria-label="Dropout: 0.9; OOD PRECISION: 0.998" role="graphics-symbol" aria-roledescription="point" transform="translate(300,1.2800000000000011)" d="M4.472,0A4.472,4.472,0,1,1,-4.472,0A4.472,4.472,0,1,1,4.472,0" fill="#4c78a8" stroke-width="2" opacity="0.7"/><path aria-label="Dropout: 0.75; OOD PRECISION: 0.999" role="graphics-symbol" aria-roledescription="point" transform="translate(249.99999999999997,0.6400000000000006)" d="M4.472,0A4.472,4.472,0,1,1,-4.472,0A4.472,4.472,0,1,1,4.472,0" fill="#4c78a8" stroke-width="2" opacity="0.7"/><path aria-label="Dropout: 0.75; OOD PRECISION: 1" role="graphics-symbol" aria-roledescription="point" transform="translate(249.99999999999997,0)" d="M4.472,0A4.472,4.472,0,1,1,-4.472,0A4.472,4.472,0,1,1,4.472,0" fill="#4c78a8" stroke-width="2" opacity="0.7"/><path aria-label="Dropout: 0; OOD PRECISION: 0.823" role="graphics-symbol" aria-roledescription="point" transform="translate(0,113.28000000000003)" d="M4.472,0A4.472,4.472,0,1,1,-4.472,0A4.472,4.472,0,1,1,4.472,0" fill="#4c78a8" stroke-width="2" opacity="0.7"/><path aria-label="Dropout: 0.9; OOD PRECISION: 1" role="graphics-symbol" aria-roledescription="point" transform="translate(300,0)" d="M4.472,0A4.472,4.472,0,1,1,-4.472,0A4.472,4.472,0,1,1,4.472,0" fill="#4c78a8" stroke-width="2" opacity="0.7"/><path aria-label="Dropout: 0.9; OOD PRECISION: 1" role="graphics-symbol" aria-roledescription="point" transform="translate(300,0)" d="M4.472,0A4.472,4.472,0,1,1,-4.472,0A4.472,4.472,0,1,1,4.472,0" fill="#4c78a8" stroke-width="2" opacity="0.7"/><path aria-label="Dropout: 0.9; OOD PRECISION: 1" role="graphics-symbol" aria-roledescription="point" transform="translate(300,0)" d="M4.472,0A4.472,4.472,0,1,1,-4.472,0A4.472,4.472,0,1,1,4.472,0" fill="#4c78a8" stroke-width="2" opacity="0.7"/><path aria-label="Dropout: 0.9; OOD PRECISION: 1" role="graphics-symbol" aria-roledescription="point" transform="translate(300,0)" d="M4.472,0A4.472,4.472,0,1,1,-4.472,0A4.472,4.472,0,1,1,4.472,0" fill="#4c78a8" stroke-width="2" opacity="0.7"/><path aria-label="Dropout: 0.9; OOD PRECISION: 1" role="graphics-symbol" aria-roledescription="point" transform="translate(300,0)" d="M4.472,0A4.472,4.472,0,1,1,-4.472,0A4.472,4.472,0,1,1,4.472,0" fill="#4c78a8" stroke-width="2" opacity="0.7"/><path aria-label="Dropout: 0.9; OOD PRECISION: 1" role="graphics-symbol" aria-roledescription="point" transform="translate(300,0)" d="M4.472,0A4.472,4.472,0,1,1,-4.472,0A4.472,4.472,0,1,1,4.472,0" fill="#4c78a8" stroke-width="2" opacity="0.7"/><path aria-label="Dropout: 0.9; OOD PRECISION: 1" role="graphics-symbol" aria-roledescription="point" transform="translate(300,0)" d="M4.472,0A4.472,4.472,0,1,1,-4.472,0A4.472,4.472,0,1,1,4.472,0" fill="#4c78a8" stroke-width="2" opacity="0.7"/><path aria-label="Dropout: 0.9; OOD PRECISION: 1" role="graphics-symbol" aria-roledescription="point" transform="translate(300,0)" d="M4.472,0A4.472,4.472,0,1,1,-4.472,0A4.472,4.472,0,1,1,4.472,0" fill="#4c78a8" stroke-width="2" opacity="0.7"/><path aria-label="Dropout: 0.9; OOD PRECISION: 1" role="graphics-symbol" aria-roledescription="point" transform="translate(300,0)" d="M4.472,0A4.472,4.472,0,1,1,-4.472,0A4.472,4.472,0,1,1,4.472,0" fill="#4c78a8" stroke-width="2" opacity="0.7"/><path aria-label="Dropout: 0.9; OOD PRECISION: 1" role="graphics-symbol" aria-roledescription="point" transform="translate(300,0)" d="M4.472,0A4.472,4.472,0,1,1,-4.472,0A4.472,4.472,0,1,1,4.472,0" fill="#4c78a8" stroke-width="2" opacity="0.7"/><path aria-label="Dropout: 0.9; OOD PRECISION: 0.992" role="graphics-symbol" aria-roledescription="point" transform="translate(300,5.1200000000000045)" d="M4.472,0A4.472,4.472,0,1,1,-4.472,0A4.472,4.472,0,1,1,4.472,0" fill="#4c78a8" stroke-width="2" opacity="0.7"/></g></g><path class="foreground" aria-hidden="true" d="" display="none"/></g></g></g><defs><clipPath id="clip50"><rect x="0" y="0" width="300" height="320"/></clipPath></defs></svg>