<svg xmlns="http://www.w3.org/2000/svg" xmlns:xlink="http://www.w3.org/1999/xlink" version="1.1" class="marks" width="146" height="394" viewBox="0 0 146 394"><rect width="146" height="394" fill="white"/><g fill="none" stroke-miterlimit="10" transform="translate(54,11)"><g class="mark-group role-frame root" role="graphics-object" aria-roledescription="group mark container"><g transform="translate(0,0)"><path class="background" aria-hidden="true" d="M0.5,0.5h60v320h-60Z" stroke="#ddd"/><g><g class="mark-group role-axis" aria-hidden="true"><g transform="translate(0.5,0.5)"><path class="background" aria-hidden="true" d="M0,0h0v0h0Z" pointer-events="none"/><g><g class="mark-rule role-axis-grid" pointer-events="none"><line transform="translate(0,320)" x2="60" y2="0" stroke="#ddd" stroke-width="1" opacity="1"/><line transform="translate(0,288)" x2="60" y2="0" stroke="#ddd" stroke-width="1" opacity="1"/><line transform="translate(0,256)" x2="60" y2="0" stroke="#ddd" stroke-width="1" opacity="1"/><line transform="translate(0,224)" x2="60" y2="0" stroke="#ddd" stroke-width="1" opacity="1"/><line transform="translate(0,192)" x2="60" y2="0" stroke="#ddd" stroke-width="1" opacity="1"/><line transform="translate(0,160)" x2="60" y2="0" stroke="#ddd" stroke-width="1" opacity="1"/><line transform="translate(0,128)" x2="60" y2="0" stroke="#ddd" stroke-width="1" opacity="1"/><line transform="translate(0,96)" x2="60" y2="0" stroke="#ddd" stroke-width="1" opacity="1"/><line transform="translate(0,64)" x2="60" y2="0" stroke="#ddd" stroke-width="1" opacity="1"/><line transform="translate(0,32)" x2="60" y2="0" stroke="#ddd" stroke-width="1" opacity="1"/><line transform="translate(0,0)" x2="60" y2="0" stroke="#ddd" stroke-width="1" opacity="1"/></g></g><path class="foreground" aria-hidden="true" d="" pointer-events="none" display="none"/></g></g><g class="mark-group role-axis" role="graphics-symbol" aria-roledescription="axis" aria-label="X-axis titled 'Positive Subsets' for a discrete scale with 3 values: top50, small, none"><g transform="translate(0.5,320.5)"><path class="background" aria-hidden="true" d="M0,0h0v0h0Z" pointer-events="none"/><g><g class="mark-rule role-axis-tick" pointer-events="none"><line transform="translate(10,0)" x2="0" y2="5" stroke="#888" stroke-width="1" opacity="1"/><line transform="translate(30,0)" x2="0" y2="5" stroke="#888" stroke-width="1" opacity="1"/><line transform="translate(50,0)" x2="0" y2="5" stroke="#888" stroke-width="1" opacity="1"/></g><g class="mark-text role-axis-label" pointer-events="none"><text text-anchor="end" transform="translate(9.5,7) rotate(270) translate(0,4)" font-family="sans-serif" font-size="12px" font-weight="bold" fill="#000" opacity="1">top50</text><text text-anchor="end" transform="translate(29.5,7) rotate(270) translate(0,4)" font-family="sans-serif" font-size="12px" font-weight="bold" fill="#000" opacity="1">small</text><text text-anchor="end" transform="translate(49.5,7) rotate(270) translate(0,4)" font-family="sans-serif" font-size="12px" font-weight="bold" fill="#000" opacity="1">none</text></g><g class="mark-rule role-axis-domain" pointer-events="none"><line transform="translate(0,0)" x2="60" y2="0" stroke="#888" stroke-width="1" opacity="1"/></g><g class="mark-text role-axis-title" pointer-events="none"><text text-anchor="middle" transform="translate(30,54.00390625)" font-family="sans-serif" font-size="14px" font-weight="bold" fill="#000" opacity="1">Positive Subsets</text></g></g><path class="foreground" aria-hidden="true" d="" pointer-events="none" display="none"/></g></g><g class="mark-group role-axis" role="graphics-symbol" aria-roledescription="axis" aria-label="Y-axis titled 'OOD F1' for a linear scale with values from 0.5 to 1.0"><g transform="translate(0.5,0.5)"><path class="background" aria-hidden="true" d="M0,0h0v0h0Z" pointer-events="none"/><g><g class="mark-rule role-axis-tick" pointer-events="none"><line transform="translate(0,320)" x2="-5" y2="0" stroke="#888" stroke-width="1" opacity="1"/><line transform="translate(0,288)" x2="-5" y2="0" stroke="#888" stroke-width="1" opacity="1"/><line transform="translate(0,256)" x2="-5" y2="0" stroke="#888" stroke-width="1" opacity="1"/><line transform="translate(0,224)" x2="-5" y2="0" stroke="#888" stroke-width="1" opacity="1"/><line transform="translate(0,192)" x2="-5" y2="0" stroke="#888" stroke-width="1" opacity="1"/><line transform="translate(0,160)" x2="-5" y2="0" stroke="#888" stroke-width="1" opacity="1"/><line transform="translate(0,128)" x2="-5" y2="0" stroke="#888" stroke-width="1" opacity="1"/><line transform="translate(0,96)" x2="-5" y2="0" stroke="#888" stroke-width="1" opacity="1"/><line transform="translate(0,64)" x2="-5" y2="0" stroke="#888" stroke-width="1" opacity="1"/><line transform="translate(0,32)" x2="-5" y2="0" stroke="#888" stroke-width="1" opacity="1"/><line transform="translate(0,0)" x2="-5" y2="0" stroke="#888" stroke-width="1" opacity="1"/></g><g class="mark-text role-axis-label" pointer-events="none"><text text-anchor="end" transform="translate(-7,324)" font-family="sans-serif" font-size="12px" font-weight="bold" fill="#000" opacity="1">0.50</text><text text-anchor="end" transform="translate(-7,292)" font-family="sans-serif" font-size="12px" font-weight="bold" fill="#000" opacity="1">0.55</text><text text-anchor="end" transform="translate(-7,260)" font-family="sans-serif" font-size="12px" font-weight="bold" fill="#000" opacity="1">0.60</text><text text-anchor="end" transform="translate(-7,228)" font-family="sans-serif" font-size="12px" font-weight="bold" fill="#000" opacity="1">0.65</text><text text-anchor="end" transform="translate(-7,196.00000000000003)" font-family="sans-serif" font-size="12px" font-weight="bold" fill="#000" opacity="1">0.70</text><text text-anchor="end" transform="translate(-7,164)" font-family="sans-serif" font-size="12px" font-weight="bold" fill="#000" opacity="1">0.75</text><text text-anchor="end" transform="translate(-7,131.99999999999997)" font-family="sans-serif" font-size="12px" font-weight="bold" fill="#000" opacity="1">0.80</text><text text-anchor="end" transform="translate(-7,100.00000000000001)" font-family="sans-serif" font-size="12px" font-weight="bold" fill="#000" opacity="1">0.85</text><text text-anchor="end" transform="translate(-7,67.99999999999999)" font-family="sans-serif" font-size="12px" font-weight="bold" fill="#000" opacity="1">0.90</text><text text-anchor="end" transform="translate(-7,36.00000000000003)" font-family="sans-serif" font-size="12px" font-weight="bold" fill="#000" opacity="1">0.95</text><text text-anchor="end" transform="translate(-7,4)" font-family="sans-serif" font-size="12px" font-weight="bold" fill="#000" opacity="1">1.00</text></g><g class="mark-rule role-axis-domain" pointer-events="none"><line transform="translate(0,320)" x2="0" y2="-320" stroke="#888" stroke-width="1" opacity="1"/></g><g class="mark-text role-axis-title" pointer-events="none"><text text-anchor="middle" transform="translate(-34.35546875,160) rotate(-90) translate(0,-3)" font-family="sans-serif" font-size="14px" font-weight="bold" fill="#000" opacity="1">OOD F1</text></g></g><path class="foreground" aria-hidden="true" d="" pointer-events="none" display="none"/></g></g><g class="mark-rect role-mark layer_0_marks" clip-path="url(#clip262)" role="graphics-object" aria-roledescription="rect mark container"><path aria-label="Positive Subsets: none; OOD F1: 0.5; mean_plot: 0.708583333333; STD: 0.0413531538499" role="graphics-symbol" aria-roledescription="bar" d="M41,186.50666666666666h18v133.49333333333334h-18Z" fill="#4c78a8"/><path aria-label="Positive Subsets: small; OOD F1: 0.5; mean_plot: 0.725833333333; STD: 0.0175090452814" role="graphics-symbol" aria-roledescription="bar" d="M21,175.46666666666675h18v144.53333333333325h-18Z" fill="#4c78a8"/><path aria-label="Positive Subsets: top50; OOD F1: 0.5; mean_plot: 0.754666666667; STD: 0.0315763624673" role="graphics-symbol" aria-roledescription="bar" d="M1,157.01333333333332h18v162.98666666666668h-18Z" fill="#4c78a8"/></g><g class="mark-rect role-mark layer_1_marks" clip-path="url(#clip263)" role="graphics-object" aria-roledescription="rect mark container"><path aria-label="Positive Subsets: none; baseline: 0.5" role="graphics-symbol" aria-roledescription="tick" d="M41,319h18v2h-18Z" fill="#666" opacity="0.7"/><path aria-label="Positive Subsets: small; baseline: 0.5" role="graphics-symbol" aria-roledescription="tick" d="M21,319h18v2h-18Z" fill="#666" opacity="0.7"/><path aria-label="Positive Subsets: top50; baseline: 0.5" role="graphics-symbol" aria-roledescription="tick" d="M1,319h18v2h-18Z" fill="#666" opacity="0.7"/></g><g class="mark-symbol role-mark layer_2_marks" clip-path="url(#clip264)" role="graphics-object" aria-roledescription="symbol mark container"><path aria-label="Positive Subsets: none; mean_plot: 0.708583333333; OOD F1: 0.708583333333" role="graphics-symbol" aria-roledescription="point" transform="translate(50,186.50666666666666)" d="M4.183,0A4.183,4.183,0,1,1,-4.183,0A4.183,4.183,0,1,1,4.183,0" fill="#1f77b4" stroke-width="2" opacity="0.7"/><path aria-label="Positive Subsets: small; mean_plot: 0.725833333333; OOD F1: 0.725833333333" role="graphics-symbol" aria-roledescription="point" transform="translate(30,175.46666666666675)" d="M4.183,0A4.183,4.183,0,1,1,-4.183,0A4.183,4.183,0,1,1,4.183,0" fill="#1f77b4" stroke-width="2" opacity="0.7"/><path aria-label="Positive Subsets: top50; mean_plot: 0.754666666667; OOD F1: 0.754666666667" role="graphics-symbol" aria-roledescription="point" transform="translate(10,157.01333333333332)" d="M4.183,0A4.183,4.183,0,1,1,-4.183,0A4.183,4.183,0,1,1,4.183,0" fill="#1f77b4" stroke-width="2" opacity="0.7"/></g></g><path class="foreground" aria-hidden="true" d="" display="none"/></g></g></g><defs><clipPath id="clip262"><rect x="0" y="0" width="60" height="320"/></clipPath><clipPath id="clip263"><rect x="0" y="0" width="60" height="320"/></clipPath><clipPath id="clip264"><rect x="0" y="0" width="60" height="320"/></clipPath></defs></svg>