<svg xmlns="http://www.w3.org/2000/svg" xmlns:xlink="http://www.w3.org/1999/xlink" version="1.1" class="marks" width="112" height="466" viewBox="0 0 112 466"><rect width="112" height="466" fill="white"/><g fill="none" stroke-miterlimit="10" transform="translate(47,11)"><g class="mark-group role-frame root" role="graphics-object" aria-roledescription="group mark container"><g transform="translate(0,0)"><path class="background" aria-hidden="true" d="M0.5,0.5h60v320h-60Z" stroke="#ddd"/><g><g class="mark-group role-axis" aria-hidden="true"><g transform="translate(0.5,0.5)"><path class="background" aria-hidden="true" d="M0,0h0v0h0Z" pointer-events="none"/><g><g class="mark-rule role-axis-grid" pointer-events="none"><line transform="translate(0,320)" x2="60" y2="0" stroke="#ddd" stroke-width="1" opacity="1"/><line transform="translate(0,280)" x2="60" y2="0" stroke="#ddd" stroke-width="1" opacity="1"/><line transform="translate(0,240)" x2="60" y2="0" stroke="#ddd" stroke-width="1" opacity="1"/><line transform="translate(0,200)" x2="60" y2="0" stroke="#ddd" stroke-width="1" opacity="1"/><line transform="translate(0,160)" x2="60" y2="0" stroke="#ddd" stroke-width="1" opacity="1"/><line transform="translate(0,120)" x2="60" y2="0" stroke="#ddd" stroke-width="1" opacity="1"/><line transform="translate(0,80)" x2="60" y2="0" stroke="#ddd" stroke-width="1" opacity="1"/><line transform="translate(0,40)" x2="60" y2="0" stroke="#ddd" stroke-width="1" opacity="1"/><line transform="translate(0,0)" x2="60" y2="0" stroke="#ddd" stroke-width="1" opacity="1"/></g></g><path class="foreground" aria-hidden="true" d="" pointer-events="none" display="none"/></g></g><g class="mark-group role-axis" role="graphics-symbol" aria-roledescription="axis" aria-label="X-axis titled 'Quality' for a discrete scale with 3 values: high, medium, low, high, medium, high"><g transform="translate(0.5,320.5)"><path class="background" aria-hidden="true" d="M0,0h0v0h0Z" pointer-events="none"/><g><g class="mark-rule role-axis-tick" pointer-events="none"><line transform="translate(10,0)" x2="0" y2="5" stroke="#888" stroke-width="1" opacity="1"/><line transform="translate(30,0)" x2="0" y2="5" stroke="#888" stroke-width="1" opacity="1"/><line transform="translate(50,0)" x2="0" y2="5" stroke="#888" stroke-width="1" opacity="1"/></g><g class="mark-text role-axis-label" pointer-events="none"><text text-anchor="end" transform="translate(9.5,7) rotate(270) translate(0,4)" font-family="sans-serif" font-size="12px" font-weight="bold" fill="#000" opacity="1">high, medium, low</text><text text-anchor="end" transform="translate(29.5,7) rotate(270) translate(0,4)" font-family="sans-serif" font-size="12px" font-weight="bold" fill="#000" opacity="1">high, medium</text><text text-anchor="end" transform="translate(49.5,7) rotate(270) translate(0,4)" font-family="sans-serif" font-size="12px" font-weight="bold" fill="#000" opacity="1">high</text></g><g class="mark-rule role-axis-domain" pointer-events="none"><line transform="translate(0,0)" x2="60" y2="0" stroke="#888" stroke-width="1" opacity="1"/></g><g class="mark-text role-axis-title" pointer-events="none"><text text-anchor="middle" transform="translate(30,126.666015625)" font-family="sans-serif" font-size="14px" font-weight="bold" fill="#000" opacity="1">Quality</text></g></g><path class="foreground" aria-hidden="true" d="" pointer-events="none" display="none"/></g></g><g class="mark-group role-axis" role="graphics-symbol" aria-roledescription="axis" aria-label="Y-axis titled 'OOD F1' for a linear scale with values from 0.0 to 0.8"><g transform="translate(0.5,0.5)"><path class="background" aria-hidden="true" d="M0,0h0v0h0Z" pointer-events="none"/><g><g class="mark-rule role-axis-tick" pointer-events="none"><line transform="translate(0,320)" x2="-5" y2="0" stroke="#888" stroke-width="1" opacity="1"/><line transform="translate(0,280)" x2="-5" y2="0" stroke="#888" stroke-width="1" opacity="1"/><line transform="translate(0,240)" x2="-5" y2="0" stroke="#888" stroke-width="1" opacity="1"/><line transform="translate(0,200)" x2="-5" y2="0" stroke="#888" stroke-width="1" opacity="1"/><line transform="translate(0,160)" x2="-5" y2="0" stroke="#888" stroke-width="1" opacity="1"/><line transform="translate(0,120)" x2="-5" y2="0" stroke="#888" stroke-width="1" opacity="1"/><line transform="translate(0,80)" x2="-5" y2="0" stroke="#888" stroke-width="1" opacity="1"/><line transform="translate(0,40)" x2="-5" y2="0" stroke="#888" stroke-width="1" opacity="1"/><line transform="translate(0,0)" x2="-5" y2="0" stroke="#888" stroke-width="1" opacity="1"/></g><g class="mark-text role-axis-label" pointer-events="none"><text text-anchor="end" transform="translate(-7,324)" font-family="sans-serif" font-size="12px" font-weight="bold" fill="#000" opacity="1">0.0</text><text text-anchor="end" transform="translate(-7,284)" font-family="sans-serif" font-size="12px" font-weight="bold" fill="#000" opacity="1">0.1</text><text text-anchor="end" transform="translate(-7,244)" font-family="sans-serif" font-size="12px" font-weight="bold" fill="#000" opacity="1">0.2</text><text text-anchor="end" transform="translate(-7,204)" font-family="sans-serif" font-size="12px" font-weight="bold" fill="#000" opacity="1">0.3</text><text text-anchor="end" transform="translate(-7,164)" font-family="sans-serif" font-size="12px" font-weight="bold" fill="#000" opacity="1">0.4</text><text text-anchor="end" transform="translate(-7,124)" font-family="sans-serif" font-size="12px" font-weight="bold" fill="#000" opacity="1">0.5</text><text text-anchor="end" transform="translate(-7,84.00000000000003)" font-family="sans-serif" font-size="12px" font-weight="bold" fill="#000" opacity="1">0.6</text><text text-anchor="end" transform="translate(-7,44.000000000000036)" font-family="sans-serif" font-size="12px" font-weight="bold" fill="#000" opacity="1">0.7</text><text text-anchor="end" transform="translate(-7,4)" font-family="sans-serif" font-size="12px" font-weight="bold" fill="#000" opacity="1">0.8</text></g><g class="mark-rule role-axis-domain" pointer-events="none"><line transform="translate(0,320)" x2="0" y2="-320" stroke="#888" stroke-width="1" opacity="1"/></g><g class="mark-text role-axis-title" pointer-events="none"><text text-anchor="middle" transform="translate(-27.681640625,160) rotate(-90) translate(0,-3)" font-family="sans-serif" font-size="14px" font-weight="bold" fill="#000" opacity="1">OOD F1</text></g></g><path class="foreground" aria-hidden="true" d="" pointer-events="none" display="none"/></g></g><g class="mark-rect role-mark layer_0_marks" clip-path="url(#clip63)" role="graphics-object" aria-roledescription="rect mark container"><path aria-label="Quality: high; OOD F1: 0.686; STD: 0.0390128184063" role="graphics-symbol" aria-roledescription="bar" d="M41,45.60000000000002h18v274.4h-18Z" fill="#4c78a8"/><path aria-label="Quality: high, medium; OOD F1: 0.737222222222; STD: 0.0291276209233" role="graphics-symbol" aria-roledescription="bar" d="M21,25.11111111111113h18v294.88888888888886h-18Z" fill="#4c78a8"/><path aria-label="Quality: high, medium, low; OOD F1: 0.778166666667; STD: 0.024432901315" role="graphics-symbol" aria-roledescription="bar" d="M1,8.733333333333313h18v311.2666666666667h-18Z" fill="#4c78a8"/></g><g class="mark-symbol role-mark layer_1_marks" clip-path="url(#clip64)" role="graphics-object" aria-roledescription="symbol mark container"><path aria-label="Quality: high; mean_plot: 0.686; OOD F1: 0.686" role="graphics-symbol" aria-roledescription="point" transform="translate(50,45.60000000000002)" d="M4.183,0A4.183,4.183,0,1,1,-4.183,0A4.183,4.183,0,1,1,4.183,0" fill="#1f77b4" stroke-width="2" opacity="0.7"/><path aria-label="Quality: high, medium; mean_plot: 0.737222222222; OOD F1: 0.737222222222" role="graphics-symbol" aria-roledescription="point" transform="translate(30,25.11111111111113)" d="M4.183,0A4.183,4.183,0,1,1,-4.183,0A4.183,4.183,0,1,1,4.183,0" fill="#1f77b4" stroke-width="2" opacity="0.7"/><path aria-label="Quality: high, medium, low; mean_plot: 0.778166666667; OOD F1: 0.778166666667" role="graphics-symbol" aria-roledescription="point" transform="translate(10,8.733333333333313)" d="M4.183,0A4.183,4.183,0,1,1,-4.183,0A4.183,4.183,0,1,1,4.183,0" fill="#1f77b4" stroke-width="2" opacity="0.7"/></g></g><path class="foreground" aria-hidden="true" d="" display="none"/></g></g></g><defs><clipPath id="clip63"><rect x="0" y="0" width="60" height="320"/></clipPath><clipPath id="clip64"><rect x="0" y="0" width="60" height="320"/></clipPath></defs></svg>