<svg xmlns="http://www.w3.org/2000/svg" xmlns:xlink="http://www.w3.org/1999/xlink" version="1.1" class="marks" width="360" height="372" viewBox="0 0 360 372"><rect width="360" height="372" fill="white"/><g fill="none" stroke-miterlimit="10" transform="translate(54,11)"><g class="mark-group role-frame root" role="graphics-object" aria-roledescription="group mark container"><g transform="translate(0,0)"><path class="background" aria-hidden="true" d="M0.5,0.5h300v320h-300Z" stroke="#ddd"/><g><g class="mark-group role-axis" aria-hidden="true"><g transform="translate(0.5,320.5)"><path class="background" aria-hidden="true" d="M0,0h0v0h0Z" pointer-events="none"/><g><g class="mark-rule role-axis-grid" pointer-events="none"><line transform="translate(0,-320)" x2="0" y2="320" stroke="#ddd" stroke-width="1" opacity="1"/><line transform="translate(30,-320)" x2="0" y2="320" stroke="#ddd" stroke-width="1" opacity="1"/><line transform="translate(60,-320)" x2="0" y2="320" stroke="#ddd" stroke-width="1" opacity="1"/><line transform="translate(90,-320)" x2="0" y2="320" stroke="#ddd" stroke-width="1" opacity="1"/><line transform="translate(120,-320)" x2="0" y2="320" stroke="#ddd" stroke-width="1" opacity="1"/><line transform="translate(150,-320)" x2="0" y2="320" stroke="#ddd" stroke-width="1" opacity="1"/><line transform="translate(180,-320)" x2="0" y2="320" stroke="#ddd" stroke-width="1" opacity="1"/><line transform="translate(210,-320)" x2="0" y2="320" stroke="#ddd" stroke-width="1" opacity="1"/><line transform="translate(240,-320)" x2="0" y2="320" stroke="#ddd" stroke-width="1" opacity="1"/><line transform="translate(270,-320)" x2="0" y2="320" stroke="#ddd" stroke-width="1" opacity="1"/><line transform="translate(300,-320)" x2="0" y2="320" stroke="#ddd" stroke-width="1" opacity="1"/></g></g><path class="foreground" aria-hidden="true" d="" pointer-events="none" display="none"/></g></g><g class="mark-group role-axis" aria-hidden="true"><g transform="translate(0.5,0.5)"><path class="background" aria-hidden="true" d="M0,0h0v0h0Z" pointer-events="none"/><g><g class="mark-rule role-axis-grid" pointer-events="none"><line transform="translate(0,320)" x2="300" y2="0" stroke="#ddd" stroke-width="1" opacity="1"/><line transform="translate(0,288)" x2="300" y2="0" stroke="#ddd" stroke-width="1" opacity="1"/><line transform="translate(0,256)" x2="300" y2="0" stroke="#ddd" stroke-width="1" opacity="1"/><line transform="translate(0,224)" x2="300" y2="0" stroke="#ddd" stroke-width="1" opacity="1"/><line transform="translate(0,192)" x2="300" y2="0" stroke="#ddd" stroke-width="1" opacity="1"/><line transform="translate(0,160)" x2="300" y2="0" stroke="#ddd" stroke-width="1" opacity="1"/><line transform="translate(0,128)" x2="300" y2="0" stroke="#ddd" stroke-width="1" opacity="1"/><line transform="translate(0,96)" x2="300" y2="0" stroke="#ddd" stroke-width="1" opacity="1"/><line transform="translate(0,64)" x2="300" y2="0" stroke="#ddd" stroke-width="1" opacity="1"/><line transform="translate(0,32)" x2="300" y2="0" stroke="#ddd" stroke-width="1" opacity="1"/><line transform="translate(0,0)" x2="300" y2="0" stroke="#ddd" stroke-width="1" opacity="1"/></g></g><path class="foreground" aria-hidden="true" d="" pointer-events="none" display="none"/></g></g><g class="mark-group role-axis" role="graphics-symbol" aria-roledescription="axis" aria-label="X-axis titled 'Learning Rate' for a linear scale with values from 0.0000 to 0.0010"><g transform="translate(0.5,320.5)"><path class="background" aria-hidden="true" d="M0,0h0v0h0Z" pointer-events="none"/><g><g class="mark-rule role-axis-tick" pointer-events="none"><line transform="translate(0,0)" x2="0" y2="5" stroke="#888" stroke-width="1" opacity="1"/><line transform="translate(30,0)" x2="0" y2="5" stroke="#888" stroke-width="1" opacity="1"/><line transform="translate(60,0)" x2="0" y2="5" stroke="#888" stroke-width="1" opacity="1"/><line transform="translate(90,0)" x2="0" y2="5" stroke="#888" stroke-width="1" opacity="1"/><line transform="translate(120,0)" x2="0" y2="5" stroke="#888" stroke-width="1" opacity="1"/><line transform="translate(150,0)" x2="0" y2="5" stroke="#888" stroke-width="1" opacity="1"/><line transform="translate(180,0)" x2="0" y2="5" stroke="#888" stroke-width="1" opacity="1"/><line transform="translate(210,0)" x2="0" y2="5" stroke="#888" stroke-width="1" opacity="1"/><line transform="translate(240,0)" x2="0" y2="5" stroke="#888" stroke-width="1" opacity="1"/><line transform="translate(270,0)" x2="0" y2="5" stroke="#888" stroke-width="1" opacity="1"/><line transform="translate(300,0)" x2="0" y2="5" stroke="#888" stroke-width="1" opacity="1"/></g><g class="mark-text role-axis-label" pointer-events="none"><text text-anchor="start" transform="translate(0,16)" font-family="sans-serif" font-size="12px" font-weight="bold" fill="#000" opacity="1">0.0000</text><text text-anchor="middle" transform="translate(30,16)" font-family="sans-serif" font-size="12px" font-weight="bold" fill="#000" opacity="0">0.0001</text><text text-anchor="middle" transform="translate(60,16)" font-family="sans-serif" font-size="12px" font-weight="bold" fill="#000" opacity="1">0.0002</text><text text-anchor="middle" transform="translate(90,16)" font-family="sans-serif" font-size="12px" font-weight="bold" fill="#000" opacity="0">0.0003</text><text text-anchor="middle" transform="translate(120,16)" font-family="sans-serif" font-size="12px" font-weight="bold" fill="#000" opacity="1">0.0004</text><text text-anchor="middle" transform="translate(150,16)" font-family="sans-serif" font-size="12px" font-weight="bold" fill="#000" opacity="0">0.0005</text><text text-anchor="middle" transform="translate(180,16)" font-family="sans-serif" font-size="12px" font-weight="bold" fill="#000" opacity="1">0.0006</text><text text-anchor="middle" transform="translate(210,16)" font-family="sans-serif" font-size="12px" font-weight="bold" fill="#000" opacity="0">0.0007</text><text text-anchor="middle" transform="translate(240,16)" font-family="sans-serif" font-size="12px" font-weight="bold" fill="#000" opacity="1">0.0008</text><text text-anchor="middle" transform="translate(270,16)" font-family="sans-serif" font-size="12px" font-weight="bold" fill="#000" opacity="0">0.0009</text><text text-anchor="end" transform="translate(300,16)" font-family="sans-serif" font-size="12px" font-weight="bold" fill="#000" opacity="1">0.0010</text></g><g class="mark-rule role-axis-domain" pointer-events="none"><line transform="translate(0,0)" x2="300" y2="0" stroke="#888" stroke-width="1" opacity="1"/></g><g class="mark-text role-axis-title" pointer-events="none"><text text-anchor="middle" transform="translate(150,33)" font-family="sans-serif" font-size="14px" font-weight="bold" fill="#000" opacity="1">Learning Rate</text></g></g><path class="foreground" aria-hidden="true" d="" pointer-events="none" display="none"/></g></g><g class="mark-group role-axis" role="graphics-symbol" aria-roledescription="axis" aria-label="Y-axis titled 'OOD F1' for a linear scale with values from 0.5 to 1.0"><g transform="translate(0.5,0.5)"><path class="background" aria-hidden="true" d="M0,0h0v0h0Z" pointer-events="none"/><g><g class="mark-rule role-axis-tick" pointer-events="none"><line transform="translate(0,320)" x2="-5" y2="0" stroke="#888" stroke-width="1" opacity="1"/><line transform="translate(0,288)" x2="-5" y2="0" stroke="#888" stroke-width="1" opacity="1"/><line transform="translate(0,256)" x2="-5" y2="0" stroke="#888" stroke-width="1" opacity="1"/><line transform="translate(0,224)" x2="-5" y2="0" stroke="#888" stroke-width="1" opacity="1"/><line transform="translate(0,192)" x2="-5" y2="0" stroke="#888" stroke-width="1" opacity="1"/><line transform="translate(0,160)" x2="-5" y2="0" stroke="#888" stroke-width="1" opacity="1"/><line transform="translate(0,128)" x2="-5" y2="0" stroke="#888" stroke-width="1" opacity="1"/><line transform="translate(0,96)" x2="-5" y2="0" stroke="#888" stroke-width="1" opacity="1"/><line transform="translate(0,64)" x2="-5" y2="0" stroke="#888" stroke-width="1" opacity="1"/><line transform="translate(0,32)" x2="-5" y2="0" stroke="#888" stroke-width="1" opacity="1"/><line transform="translate(0,0)" x2="-5" y2="0" stroke="#888" stroke-width="1" opacity="1"/></g><g class="mark-text role-axis-label" pointer-events="none"><text text-anchor="end" transform="translate(-7,324)" font-family="sans-serif" font-size="12px" font-weight="bold" fill="#000" opacity="1">0.50</text><text text-anchor="end" transform="translate(-7,292)" font-family="sans-serif" font-size="12px" font-weight="bold" fill="#000" opacity="1">0.55</text><text text-anchor="end" transform="translate(-7,260)" font-family="sans-serif" font-size="12px" font-weight="bold" fill="#000" opacity="1">0.60</text><text text-anchor="end" transform="translate(-7,228)" font-family="sans-serif" font-size="12px" font-weight="bold" fill="#000" opacity="1">0.65</text><text text-anchor="end" transform="translate(-7,196.00000000000003)" font-family="sans-serif" font-size="12px" font-weight="bold" fill="#000" opacity="1">0.70</text><text text-anchor="end" transform="translate(-7,164)" font-family="sans-serif" font-size="12px" font-weight="bold" fill="#000" opacity="1">0.75</text><text text-anchor="end" transform="translate(-7,131.99999999999997)" font-family="sans-serif" font-size="12px" font-weight="bold" fill="#000" opacity="1">0.80</text><text text-anchor="end" transform="translate(-7,100.00000000000001)" font-family="sans-serif" font-size="12px" font-weight="bold" fill="#000" opacity="1">0.85</text><text text-anchor="end" transform="translate(-7,67.99999999999999)" font-family="sans-serif" font-size="12px" font-weight="bold" fill="#000" opacity="1">0.90</text><text text-anchor="end" transform="translate(-7,36.00000000000003)" font-family="sans-serif" font-size="12px" font-weight="bold" fill="#000" opacity="1">0.95</text><text text-anchor="end" transform="translate(-7,4)" font-family="sans-serif" font-size="12px" font-weight="bold" fill="#000" opacity="1">1.00</text></g><g class="mark-rule role-axis-domain" pointer-events="none"><line transform="translate(0,320)" x2="0" y2="-320" stroke="#888" stroke-width="1" opacity="1"/></g><g class="mark-text role-axis-title" pointer-events="none"><text text-anchor="middle" transform="translate(-34.35546875,160) rotate(-90) translate(0,-3)" font-family="sans-serif" font-size="14px" font-weight="bold" fill="#000" opacity="1">OOD F1</text></g></g><path class="foreground" aria-hidden="true" d="" pointer-events="none" display="none"/></g></g><g class="mark-symbol role-mark marks" clip-path="url(#clip48)" role="graphics-object" aria-roledescription="symbol mark container"><path aria-label="Learning Rate: 0.001; OOD F1: 0.934" role="graphics-symbol" aria-roledescription="point" transform="translate(300,42.23999999999997)" d="M4.472,0A4.472,4.472,0,1,1,-4.472,0A4.472,4.472,0,1,1,4.472,0" fill="#4c78a8" stroke-width="2" opacity="0.7"/><path aria-label="Learning Rate: 0.0005; OOD F1: 0.91" role="graphics-symbol" aria-roledescription="point" transform="translate(150,57.59999999999998)" d="M4.472,0A4.472,4.472,0,1,1,-4.472,0A4.472,4.472,0,1,1,4.472,0" fill="#4c78a8" stroke-width="2" opacity="0.7"/><path aria-label="Learning Rate: 0.001; OOD F1: 0.884" role="graphics-symbol" aria-roledescription="point" transform="translate(300,74.24)" d="M4.472,0A4.472,4.472,0,1,1,-4.472,0A4.472,4.472,0,1,1,4.472,0" fill="#4c78a8" stroke-width="2" opacity="0.7"/><path aria-label="Learning Rate: 0.0005; OOD F1: 0.864" role="graphics-symbol" aria-roledescription="point" transform="translate(150,87.04)" d="M4.472,0A4.472,4.472,0,1,1,-4.472,0A4.472,4.472,0,1,1,4.472,0" fill="#4c78a8" stroke-width="2" opacity="0.7"/><path aria-label="Learning Rate: 0.001; OOD F1: 0.837" role="graphics-symbol" aria-roledescription="point" transform="translate(300,104.32000000000002)" d="M4.472,0A4.472,4.472,0,1,1,-4.472,0A4.472,4.472,0,1,1,4.472,0" fill="#4c78a8" stroke-width="2" opacity="0.7"/><path aria-label="Learning Rate: 0.001; OOD F1: 0.856" role="graphics-symbol" aria-roledescription="point" transform="translate(300,92.16000000000001)" d="M4.472,0A4.472,4.472,0,1,1,-4.472,0A4.472,4.472,0,1,1,4.472,0" fill="#4c78a8" stroke-width="2" opacity="0.7"/><path aria-label="Learning Rate: 0.001; OOD F1: 0.834" role="graphics-symbol" aria-roledescription="point" transform="translate(300,106.24000000000002)" d="M4.472,0A4.472,4.472,0,1,1,-4.472,0A4.472,4.472,0,1,1,4.472,0" fill="#4c78a8" stroke-width="2" opacity="0.7"/><path aria-label="Learning Rate: 0.0005; OOD F1: 0.856" role="graphics-symbol" aria-roledescription="point" transform="translate(150,92.16000000000001)" d="M4.472,0A4.472,4.472,0,1,1,-4.472,0A4.472,4.472,0,1,1,4.472,0" fill="#4c78a8" stroke-width="2" opacity="0.7"/><path aria-label="Learning Rate: 0.001; OOD F1: 0.838" role="graphics-symbol" aria-roledescription="point" transform="translate(300,103.68000000000002)" d="M4.472,0A4.472,4.472,0,1,1,-4.472,0A4.472,4.472,0,1,1,4.472,0" fill="#4c78a8" stroke-width="2" opacity="0.7"/><path aria-label="Learning Rate: 0.001; OOD F1: 0.817" role="graphics-symbol" aria-roledescription="point" transform="translate(300,117.12000000000003)" d="M4.472,0A4.472,4.472,0,1,1,-4.472,0A4.472,4.472,0,1,1,4.472,0" fill="#4c78a8" stroke-width="2" opacity="0.7"/><path aria-label="Learning Rate: 0.0005; OOD F1: 0.822" role="graphics-symbol" aria-roledescription="point" transform="translate(150,113.92000000000003)" d="M4.472,0A4.472,4.472,0,1,1,-4.472,0A4.472,4.472,0,1,1,4.472,0" fill="#4c78a8" stroke-width="2" opacity="0.7"/><path aria-label="Learning Rate: 0.0001; OOD F1: 0.809" role="graphics-symbol" aria-roledescription="point" transform="translate(30,122.23999999999997)" d="M4.472,0A4.472,4.472,0,1,1,-4.472,0A4.472,4.472,0,1,1,4.472,0" fill="#4c78a8" stroke-width="2" opacity="0.7"/><path aria-label="Learning Rate: 0.0005; OOD F1: 0.805" role="graphics-symbol" aria-roledescription="point" transform="translate(150,124.79999999999997)" d="M4.472,0A4.472,4.472,0,1,1,-4.472,0A4.472,4.472,0,1,1,4.472,0" fill="#4c78a8" stroke-width="2" opacity="0.7"/><path aria-label="Learning Rate: 0.001; OOD F1: 0.807" role="graphics-symbol" aria-roledescription="point" transform="translate(300,123.51999999999997)" d="M4.472,0A4.472,4.472,0,1,1,-4.472,0A4.472,4.472,0,1,1,4.472,0" fill="#4c78a8" stroke-width="2" opacity="0.7"/><path aria-label="Learning Rate: 0.0005; OOD F1: 0.807" role="graphics-symbol" aria-roledescription="point" transform="translate(150,123.51999999999997)" d="M4.472,0A4.472,4.472,0,1,1,-4.472,0A4.472,4.472,0,1,1,4.472,0" fill="#4c78a8" stroke-width="2" opacity="0.7"/><path aria-label="Learning Rate: 0.0005; OOD F1: 0.798" role="graphics-symbol" aria-roledescription="point" transform="translate(150,129.27999999999997)" d="M4.472,0A4.472,4.472,0,1,1,-4.472,0A4.472,4.472,0,1,1,4.472,0" fill="#4c78a8" stroke-width="2" opacity="0.7"/><path aria-label="Learning Rate: 0.001; OOD F1: 0.808" role="graphics-symbol" aria-roledescription="point" transform="translate(300,122.87999999999997)" d="M4.472,0A4.472,4.472,0,1,1,-4.472,0A4.472,4.472,0,1,1,4.472,0" fill="#4c78a8" stroke-width="2" opacity="0.7"/><path aria-label="Learning Rate: 0.0001; OOD F1: 0.796" role="graphics-symbol" aria-roledescription="point" transform="translate(30,130.55999999999997)" d="M4.472,0A4.472,4.472,0,1,1,-4.472,0A4.472,4.472,0,1,1,4.472,0" fill="#4c78a8" stroke-width="2" opacity="0.7"/><path aria-label="Learning Rate: 0.0005; OOD F1: 0.796" role="graphics-symbol" aria-roledescription="point" transform="translate(150,130.55999999999997)" d="M4.472,0A4.472,4.472,0,1,1,-4.472,0A4.472,4.472,0,1,1,4.472,0" fill="#4c78a8" stroke-width="2" opacity="0.7"/><path aria-label="Learning Rate: 0.001; OOD F1: 0.779" role="graphics-symbol" aria-roledescription="point" transform="translate(300,141.44)" d="M4.472,0A4.472,4.472,0,1,1,-4.472,0A4.472,4.472,0,1,1,4.472,0" fill="#4c78a8" stroke-width="2" opacity="0.7"/><path aria-label="Learning Rate: 0.0001; OOD F1: 0.775" role="graphics-symbol" aria-roledescription="point" transform="translate(30,144)" d="M4.472,0A4.472,4.472,0,1,1,-4.472,0A4.472,4.472,0,1,1,4.472,0" fill="#4c78a8" stroke-width="2" opacity="0.7"/><path aria-label="Learning Rate: 0.0001; OOD F1: 0.77" role="graphics-symbol" aria-roledescription="point" transform="translate(30,147.2)" d="M4.472,0A4.472,4.472,0,1,1,-4.472,0A4.472,4.472,0,1,1,4.472,0" fill="#4c78a8" stroke-width="2" opacity="0.7"/><path aria-label="Learning Rate: 0.0001; OOD F1: 0.763" role="graphics-symbol" aria-roledescription="point" transform="translate(30,151.68)" d="M4.472,0A4.472,4.472,0,1,1,-4.472,0A4.472,4.472,0,1,1,4.472,0" fill="#4c78a8" stroke-width="2" opacity="0.7"/><path aria-label="Learning Rate: 0.0005; OOD F1: 0.764" role="graphics-symbol" aria-roledescription="point" transform="translate(150,151.04)" d="M4.472,0A4.472,4.472,0,1,1,-4.472,0A4.472,4.472,0,1,1,4.472,0" fill="#4c78a8" stroke-width="2" opacity="0.7"/><path aria-label="Learning Rate: 0.0001; OOD F1: 0.767" role="graphics-symbol" aria-roledescription="point" transform="translate(30,149.12)" d="M4.472,0A4.472,4.472,0,1,1,-4.472,0A4.472,4.472,0,1,1,4.472,0" fill="#4c78a8" stroke-width="2" opacity="0.7"/><path aria-label="Learning Rate: 0.001; OOD F1: 0.763" role="graphics-symbol" aria-roledescription="point" transform="translate(300,151.68)" d="M4.472,0A4.472,4.472,0,1,1,-4.472,0A4.472,4.472,0,1,1,4.472,0" fill="#4c78a8" stroke-width="2" opacity="0.7"/><path aria-label="Learning Rate: 0.0001; OOD F1: 0.762" role="graphics-symbol" aria-roledescription="point" transform="translate(30,152.32)" d="M4.472,0A4.472,4.472,0,1,1,-4.472,0A4.472,4.472,0,1,1,4.472,0" fill="#4c78a8" stroke-width="2" opacity="0.7"/><path aria-label="Learning Rate: 0.0005; OOD F1: 0.762" role="graphics-symbol" aria-roledescription="point" transform="translate(150,152.32)" d="M4.472,0A4.472,4.472,0,1,1,-4.472,0A4.472,4.472,0,1,1,4.472,0" fill="#4c78a8" stroke-width="2" opacity="0.7"/><path aria-label="Learning Rate: 0.0005; OOD F1: 0.765" role="graphics-symbol" aria-roledescription="point" transform="translate(150,150.39999999999998)" d="M4.472,0A4.472,4.472,0,1,1,-4.472,0A4.472,4.472,0,1,1,4.472,0" fill="#4c78a8" stroke-width="2" opacity="0.7"/><path aria-label="Learning Rate: 0.001; OOD F1: 0.756" role="graphics-symbol" aria-roledescription="point" transform="translate(300,156.16)" d="M4.472,0A4.472,4.472,0,1,1,-4.472,0A4.472,4.472,0,1,1,4.472,0" fill="#4c78a8" stroke-width="2" opacity="0.7"/><path aria-label="Learning Rate: 0.0001; OOD F1: 0.758" role="graphics-symbol" aria-roledescription="point" transform="translate(30,154.88)" d="M4.472,0A4.472,4.472,0,1,1,-4.472,0A4.472,4.472,0,1,1,4.472,0" fill="#4c78a8" stroke-width="2" opacity="0.7"/><path aria-label="Learning Rate: 0.0001; OOD F1: 0.744" role="graphics-symbol" aria-roledescription="point" transform="translate(30,163.84)" d="M4.472,0A4.472,4.472,0,1,1,-4.472,0A4.472,4.472,0,1,1,4.472,0" fill="#4c78a8" stroke-width="2" opacity="0.7"/><path aria-label="Learning Rate: 0.0005; OOD F1: 0.748" role="graphics-symbol" aria-roledescription="point" transform="translate(150,161.28)" d="M4.472,0A4.472,4.472,0,1,1,-4.472,0A4.472,4.472,0,1,1,4.472,0" fill="#4c78a8" stroke-width="2" opacity="0.7"/><path aria-label="Learning Rate: 0.0001; OOD F1: 0.735" role="graphics-symbol" aria-roledescription="point" transform="translate(30,169.60000000000002)" d="M4.472,0A4.472,4.472,0,1,1,-4.472,0A4.472,4.472,0,1,1,4.472,0" fill="#4c78a8" stroke-width="2" opacity="0.7"/><path aria-label="Learning Rate: 0.0001; OOD F1: 0.724" role="graphics-symbol" aria-roledescription="point" transform="translate(30,176.64000000000001)" d="M4.472,0A4.472,4.472,0,1,1,-4.472,0A4.472,4.472,0,1,1,4.472,0" fill="#4c78a8" stroke-width="2" opacity="0.7"/><path aria-label="Learning Rate: 0.0001; OOD F1: 0.698" role="graphics-symbol" aria-roledescription="point" transform="translate(30,193.28000000000003)" d="M4.472,0A4.472,4.472,0,1,1,-4.472,0A4.472,4.472,0,1,1,4.472,0" fill="#4c78a8" stroke-width="2" opacity="0.7"/></g></g><path class="foreground" aria-hidden="true" d="" display="none"/></g></g></g><defs><clipPath id="clip48"><rect x="0" y="0" width="300" height="320"/></clipPath></defs></svg>